<?xml version="1.0" encoding="UTF-8" standalone="no"?>
<svg
   xmlns:dc="http://purl.org/dc/elements/1.1/"
   xmlns:cc="http://creativecommons.org/ns#"
   xmlns:rdf="http://www.w3.org/1999/02/22-rdf-syntax-ns#"
   xmlns:svg="http://www.w3.org/2000/svg"
   xmlns="http://www.w3.org/2000/svg"
   xmlns:sodipodi="http://sodipodi.sourceforge.net/DTD/sodipodi-0.dtd"
   xmlns:inkscape="http://www.inkscape.org/namespaces/inkscape"
   width="500"
   height="500"
   viewBox="0 0 500 500"
   id="logo"
   version="1.1"
   inkscape:version="0.91 r13725"
   sodipodi:docname="soon-10k-logo_.svg">
  <sodipodi:namedview
     pagecolor="#ffffff"
     bordercolor="#666666"
     borderopacity="1"
     objecttolerance="10"
     gridtolerance="10"
     guidetolerance="10"
     inkscape:pageopacity="0"
     inkscape:pageshadow="2"
     inkscape:window-width="1387"
     inkscape:window-height="958"
     id="namedview10"
     showgrid="false"
     inkscape:zoom="0.46328231"
     inkscape:cx="278.79654"
     inkscape:cy="-40.787099"
     inkscape:window-x="0"
     inkscape:window-y="32"
     inkscape:window-maximized="0"
     inkscape:current-layer="layer2" />
  <defs
     id="d1" />
  <metadata
     id="m1">
    <rdf:RDF>
      <cc:Work
         rdf:about="">
        <dc:format>image/svg+xml</dc:format>
        <dc:type
           rdf:resource="http://purl.org/dc/dcmitype/StillImage" />
        <dc:title></dc:title>
      </cc:Work>
    </rdf:RDF>
  </metadata>
  <g
     inkscape:groupmode="layer"
     id="layer2"
     inkscape:label="Background">
    <circle
       style="color:#000000;clip-rule:nonzero;display:inline;overflow:visible;visibility:visible;opacity:1;isolation:auto;mix-blend-mode:normal;color-interpolation:sRGB;color-interpolation-filters:linearRGB;solid-color:#000000;solid-opacity:1;fill:#006764;fill-opacity:1;fill-rule:nonzero;stroke-width:1.00000012;stroke-linecap:butt;stroke-linejoin:miter;stroke-miterlimit:4;stroke-dasharray:none;stroke-dashoffset:0;stroke-opacity:1;color-rendering:auto;image-rendering:auto;shape-rendering:auto;text-rendering:auto;enable-background:accumulate"
       id="path3370"
       cx="250.13664"
       cy="249.70485"
       r="248.47942" />
  </g>
  <g
     inkscape:groupmode="layer"
     id="layer1"
     inkscape:label="Logo"
     sodipodi:insensitive="true">
    <g
       id="l1"
       style="fill:#ffffff;fill-opacity:1;stroke:none"
       transform="matrix(0.88333989,0,0,0.88333989,27.312028,-3302.9532)">
      <path
         id="p1"
         d="m 85.136943,3987.2165 q 28.917737,3.2363 47.030467,20.8793 19.41768,18.8435 19.41768,46.1953 l 0,0.4697 q 0,27.9782 -19.15669,46.9261 -19.31329,19.1567 -46.821674,19.1567 -27.978166,0 -47.030462,-19.1567 -19.313286,-19.7309 -19.313286,-46.3519 l 0,-1.9313 23.541329,-10.283 0,12.6319 q 0,17.6429 12.423142,30.0661 12.527537,12.4753 30.379277,12.4753 17.851744,0 30.379274,-12.4753 12.52754,-12.6842 12.52754,-30.1705 0,-18.4259 -12.00555,-29.9094 -13.98909,-13.1018 -30.431482,-14.2502 -27.925967,-2.1923 -43.741983,-18.1127 -16.285798,-16.338 -16.285798,-39.4617 0,-23.2282 15.763818,-39.3052 16.337996,-16.1813 39.461741,-16.1813 23.175944,0 39.044164,16.1813 16.44239,16.4946 16.44239,39.1486 l 0,1.5138 -23.64573,10.5439 0,-11.6402 q -0.46978,-13.6237 -9.18687,-22.6539 -9.604436,-9.3957 -22.653954,-9.3957 -13.5193,0 -22.653963,9.1347 -9.082464,9.6045 -9.082464,22.654 0,13.1017 9.082464,22.5495 9.134663,8.8215 26.51662,10.7528 z"
         style="fill:#ffffff"
         inkscape:connector-curvature="0" />
      <path
         id="p2"
         d="m 263.08017,4015.9777 0,30.1705 c 0,18.0605 -6.47256,33.5633 -19.41768,46.404 -12.99732,12.7886 -28.60455,19.1568 -46.97827,19.1568 -18.42592,0 -34.03314,-6.3682 -46.92606,-19.1568 -12.99732,-12.8407 -19.78307,-28.3435 -19.78307,-46.404 l 0,-30.1705 c 0,-18.0606 6.78575,-33.459 19.78307,-46.1953 12.99732,-12.7885 28.60454,-19.2089 46.92606,-19.2089 18.37372,0 33.98095,6.4204 46.97827,19.2089 12.94512,12.7363 19.41768,28.1347 19.41768,46.1953 z m -109.19837,-0.4176 0,31.0057 c 0,11.6923 4.17585,21.7665 12.52754,30.1182 8.35169,8.3517 18.42592,12.5275 30.27488,12.5275 11.74456,0 21.7666,-4.1758 30.17049,-12.5275 8.35169,-8.2472 12.57973,-18.3215 12.63193,-30.1182 l 0,-31.0057 c -0.0522,-11.7968 -4.28024,-21.8188 -12.63193,-30.0139 -8.40389,-8.3517 -18.42593,-12.5275 -30.17049,-12.5275 -11.84896,0 -21.92319,4.1758 -30.27488,12.5275 -8.35169,8.1951 -12.52754,18.2171 -12.52754,30.0139 z"
         style="fill:#ffffff"
         inkscape:connector-curvature="0" />
      <path
         id="p3"
         d="m 374.41865,4006.7909 0,30.1704 c 0,18.0605 -6.47256,33.6156 -19.41768,46.5085 -12.94512,12.7363 -28.60454,19.1045 -46.97827,19.1045 -18.42591,0 -34.08533,-6.3682 -46.97826,-19.1045 -12.89292,-12.8929 -19.36548,-28.448 -19.36548,-46.5085 l 0,-30.1704 c 0,-18.0606 6.47256,-33.4591 19.36548,-46.1432 12.99732,-12.7885 28.60455,-19.1567 46.97826,-19.1567 18.37373,0 34.03315,6.3682 46.97827,19.1567 12.94512,12.6841 19.41768,28.0826 19.41768,46.1432 z m -109.19836,-0.4177 0,31.0057 c 0,11.6923 4.12365,21.8188 12.47534,30.2227 8.35169,8.2995 18.47811,12.4753 30.32707,12.4753 11.69237,0 21.7666,-4.1758 30.22269,-12.4753 8.35169,-8.3517 12.52753,-18.426 12.63193,-30.2227 l 0,-31.0057 c -0.1044,-11.7967 -4.28024,-21.8188 -12.63193,-30.0138 -8.45609,-8.3518 -18.53032,-12.4754 -30.22269,-12.4754 -11.84896,0 -21.97538,4.1236 -30.32707,12.4754 -8.35169,8.195 -12.47534,18.2171 -12.47534,30.0138 z"
         style="fill:#ffffff"
         inkscape:connector-curvature="0" />
      <path
         id="p4"
         d="m 352.96524,4093.4918 0,-95.8879 c 0,-18.0605 6.47257,-33.4067 19.46989,-46.0386 12.94512,-12.7885 28.60454,-19.2089 46.97826,-19.2089 18.32152,0 33.98095,6.4204 46.97827,19.2089 12.94512,12.6319 19.41767,27.9781 19.41767,46.0386 l 0,85.5527 -23.59353,10.3352 0,-96.3054 c -0.10439,-11.7968 -4.28023,-21.8188 -12.63193,-30.0139 -8.50828,-8.2995 -18.53031,-12.3709 -30.17048,-12.3709 -11.79677,0 -21.92319,4.0714 -30.32708,12.3709 -8.35169,8.1951 -12.52753,18.0605 -12.52753,29.5963 l 0,0.4176 0,85.9702 z"
         style="fill:#ffffff"
         inkscape:connector-curvature="0" />
    </g>
  </g>
</svg>
