<svg xmlns="http://www.w3.org/2000/svg" width="8938" height="4261" viewBox="0 0 8938 4261" style="fill:#FFF;"><path d="M1266 1700q554 62 901 400 372 361 372 885v9q0 536-367 899-370 367-897 367-536 0-901-367Q4 3515 4 3005v-37l451-197v242q0 338 238 576 240 239 582 239t582-239q240-243 240-578 0-353-230-573-268-251-583-273-535-42-838-347-312-313-312-756 0-445 302-753Q749-1 1192-1q444 0 748 310 315 316 315 750v29l-453 202v-223q-9-261-176-434-184-180-434-180-259 0-434 175-174 184-174 434 0 251 174 432 175 169 508 206z"/><path d="M4675 2251v578c0 346-124 643-372 889-249 245-548 367-900 367-353 0-652-122-899-367-249-246-379-543-379-889v-578c0-346 130-641 379-885 249-245 548-368 899-368 352 0 651 123 900 368 248 244 372 539 372 885zm-2092-8v594c0 224 80 417 240 577s353 240 580 240c225 0 417-80 578-240 160-158 241-351 242-577v-594c-1-226-82-418-242-575-161-160-353-240-578-240-227 0-420 80-580 240-160 157-240 349-240 575z"/><path d="M6808 2075v578c0 346-124 644-372 891-248 244-548 366-900 366-353 0-653-122-900-366-247-247-371-545-371-891v-578c0-346 124-641 371-884 249-245 548-367 900-367s652 122 900 367c248 243 372 538 372 884zm-2092-8v594c0 224 79 418 239 579 160 159 354 239 581 239 224 0 417-80 579-239 160-160 240-353 242-579v-594c-2-226-82-418-242-575-162-160-355-239-579-239-227 0-421 79-581 239-160 157-239 349-239 575z"/><path d="M6397 3736V1899c0-346 124-640 373-882 248-245 548-368 900-368 351 0 651 123 900 368 248 242 372 536 372 882v1639l-452 198V1891c-2-226-82-418-242-575-163-159-355-237-578-237-226 0-420 78-581 237-160 157-240 346-240 567v1655z"/></svg>
