<?xml version="1.0" encoding="UTF-8" standalone="no"?>
<svg xmlns:dc="http://purl.org/dc/elements/1.1/" xmlns:cc="http://creativecommons.org/ns#" xmlns:rdf="http://www.w3.org/1999/02/22-rdf-syntax-ns#" xmlns:svg="http://www.w3.org/2000/svg" xmlns="http://www.w3.org/2000/svg" width="8938" height="4261" viewBox="0 0 8938 4261" id="logo" version="1.1"><defs id="d1" /><metadata id="m1"><rdf:RDF><cc:Work rdf:about=""><dc:format>image/svg+xml</dc:format><dc:type rdf:resource="http://purl.org/dc/dcmitype/StillImage" /><dc:title></dc:title></cc:Work></rdf:RDF></metadata><g id="l1" style="fill:#FFF;fill-opacity:1;stroke:none"><path id="p1" d="m 1266,1700 q 554,62 901,400 372,361 372,885 l 0,9 q 0,536 -367,899 -370,367 -897,367 -536,0 -901,-367 Q 4,3515 4,3005 l 0,-37 451,-197 0,242 q 0,338 238,576 240,239 582,239 342,0 582,-239 240,-243 240,-578 0,-353 -230,-573 Q 1599,2187 1284,2165 749,2123 446,1818 134,1505 134,1062 134,617 436,309 749,-1 1192,-1 q 444,0 748,310 315,316 315,750 l 0,29 -453,202 0,-223 Q 1793,806 1626,633 1442,453 1192,453 933,453 758,628 584,812 584,1062 q 0,251 174,432 175,169 508,206 z" /><path id="p2" d="m 4675,2251 0,578 c 0,346 -124,643 -372,889 -249,245 -548,367 -900,367 -353,0 -652,-122 -899,-367 -249,-246 -379,-543 -379,-889 l 0,-578 c 0,-346 130,-641 379,-885 249,-245 548,-368 899,-368 352,0 651,123 900,368 248,244 372,539 372,885 z m -2092,-8 0,594 c 0,224 80,417 240,577 160,160 353,240 580,240 225,0 417,-80 578,-240 160,-158 241,-351 242,-577 l 0,-594 c -1,-226 -82,-418 -242,-575 -161,-160 -353,-240 -578,-240 -227,0 -420,80 -580,240 -160,157 -240,349 -240,575 z" /><path id="p3" d="m 6808,2075 0,578 c 0,346 -124,644 -372,891 -248,244 -548,366 -900,366 -353,0 -653,-122 -900,-366 -247,-247 -371,-545 -371,-891 l 0,-578 c 0,-346 124,-641 371,-884 249,-245 548,-367 900,-367 352,0 652,122 900,367 248,243 372,538 372,884 z m -2092,-8 0,594 c 0,224 79,418 239,579 160,159 354,239 581,239 224,0 417,-80 579,-239 160,-160 240,-353 242,-579 l 0,-594 c -2,-226 -82,-418 -242,-575 -162,-160 -355,-239 -579,-239 -227,0 -421,79 -581,239 -160,157 -239,349 -239,575 z" /><path id="p4" d="m 6397,3736 0,-1837 c 0,-346 124,-640 373,-882 248,-245 548,-368 900,-368 351,0 651,123 900,368 248,242 372,536 372,882 l 0,1639 -452,198 0,-1845 c -2,-226 -82,-418 -242,-575 -163,-159 -355,-237 -578,-237 -226,0 -420,78 -581,237 -160,157 -240,346 -240,567 l 0,8 0,1647 z" /></g></svg>
