<?xml version="1.0" standalone="no"?>
<!DOCTYPE svg PUBLIC "-//W3C//DTD SVG 20010904//EN"
 "http://www.w3.org/TR/2001/REC-SVG-20010904/DTD/svg10.dtd">
<svg version="1.0" xmlns="http://www.w3.org/2000/svg"
 width="500.000000pt" height="500.000000pt" viewBox="0 0 500.000000 500.000000"
 preserveAspectRatio="xMidYMid meet">
<metadata>
Created by potrace 1.11, written by Peter Selinger 2001-2013
</metadata>
<g transform="translate(0.000000,500.000000) scale(0.100000,-0.100000)"
fill="#000000" stroke="none">
<path d="M2335 4983 c-360 -29 -658 -112 -968 -271 -745 -381 -1251 -1118
-1338 -1950 -17 -167 -7 -515 20 -667 46 -257 115 -469 227 -695 329 -660 931
-1141 1644 -1313 219 -53 305 -62 590 -61 240 0 278 3 410 27 727 131 1337
549 1715 1177 323 536 427 1179 294 1810 -54 254 -198 596 -346 820 -334 506
-843 879 -1412 1036 -270 74 -587 108 -836 87z m-1220 -1407 c176 -47 324
-204 356 -379 18 -100 17 -102 -95 -152 -55 -25 -100 -45 -101 -45 -2 0 -4 42
-7 93 -3 78 -8 100 -33 145 -53 97 -131 142 -248 142 -59 0 -83 -5 -125 -26
-190 -94 -204 -371 -24 -485 53 -34 82 -43 208 -64 146 -25 241 -63 336 -131
l46 -34 7 41 c11 62 78 187 136 252 150 168 371 234 593 177 97 -25 170 -66
251 -141 l62 -59 39 57 c47 68 135 143 215 183 229 116 528 61 695 -128 l31
-35 31 45 c83 120 235 223 370 249 95 18 241 7 325 -25 177 -67 316 -218 361
-393 14 -53 16 -124 14 -483 l-3 -422 -97 -43 -98 -43 0 433 c0 457 -4 502
-46 586 -30 60 -104 133 -164 164 -99 50 -238 52 -336 5 -66 -33 -137 -102
-175 -172 l-34 -63 -3 -432 -3 -431 -102 -45 -102 -45 -3 34 -3 33 -44 -34
c-106 -80 -244 -121 -385 -112 -154 10 -278 66 -383 172 -26 27 -48 46 -50 44
-2 -2 -20 -27 -41 -56 -205 -285 -615 -325 -877 -84 l-65 59 -46 -63 c-135
-185 -366 -270 -603 -220 -107 23 -189 69 -275 155 -110 109 -165 226 -172
364 l-3 59 95 43 c52 24 98 43 103 43 4 1 7 -35 7 -78 0 -150 57 -264 170
-339 73 -49 139 -66 240 -60 225 13 387 228 340 453 -17 82 -43 129 -103 187
-73 70 -154 107 -274 124 -134 20 -218 46 -288 92 -152 99 -229 241 -227 422
2 223 127 392 342 461 67 22 195 24 265 5z"/>
<path d="M2932 3010 c-121 -17 -248 -121 -292 -237 -44 -118 -38 -465 11 -567
34 -73 102 -141 177 -178 62 -31 74 -33 167 -33 90 0 106 3 160 29 76 38 149
110 183 184 27 57 27 57 27 297 l0 240 -28 53 c-83 158 -232 236 -405 212z"/>
<path d="M1869 2907 c-112 -47 -196 -141 -225 -256 -12 -50 -15 -103 -12 -260
3 -188 4 -198 30 -254 35 -75 117 -160 187 -194 50 -25 67 -28 161 -28 87 0
113 4 153 22 71 33 159 122 193 196 28 60 29 67 32 258 4 227 -7 292 -63 375
-76 110 -179 164 -315 164 -66 0 -98 -6 -141 -23z"/>
</g>
</svg>
